<svg viewBox="0 0 24 24" fill="none" xmlns="http://www.w3.org/2000/svg"><path d="M20 21C18.611 21 17.278 20.611 16.111 19.889C13.778 21.333 10.222 21.333 7.889 19.889C6.722 20.611 5.389 21 4 21H2V19H4C5.278 19 6.5 18.556 7.5 17.778L8 17.389L8.5 17.778C10.5 19.333 13.5 19.333 15.5 17.778L16 17.389L16.5 17.778C17.5 18.556 18.722 19 20 19H22V21H20ZM3.945 16.556L4.5 16.167L5.197 16.623C5.447 16.79 5.708 16.935 5.979 17.057L12 6L13 9L18 11L20 16.056L19.5 16.167C18.447 15.334 17.052 14.806 15.5 16.167L15 16.556L14.5 16.167C12.5 14.611 9.5 14.611 7.5 16.167L7 16.556L6.5 16.167C5.5 15.389 4.722 15.778 3.945 16.556ZM9.5 11L12 4L14.5 11H9.5Z" fill="currentColor"/></svg>
