<svg viewBox="0 0 32 33" fill="none" xmlns="http://www.w3.org/2000/svg"><path fill-rule="evenodd" clip-rule="evenodd" d="M4.50781 14.0317C4.50781 9.33324 8.33133 5.50991 13.03 5.50991C17.7287 5.50991 21.5522 9.33324 21.5522 14.0317C21.5522 18.7302 17.7287 22.552 13.03 22.552C8.33133 22.552 4.50781 18.7302 4.50781 14.0317ZM29.5 29.0783L21.1499 20.7301C22.6564 18.9081 23.5617 16.5739 23.5617 14.0317C23.5617 8.22428 18.8372 3.5 13.0308 3.5C7.22453 3.5 2.5 8.22428 2.5 14.0317C2.5 19.8377 7.22453 24.562 13.0308 24.562C15.5732 24.562 17.9075 23.6553 19.7296 22.1504L28.0796 30.5L29.5 29.0783Z" fill="currentColor"/></svg>
