<svg viewBox="0 0 24 24" fill="none" xmlns="http://www.w3.org/2000/svg"><path d="M13.127 14.56L15.431 12.256L20.745 17.57L18.441 19.874L13.127 14.56ZM17.579 3.58C16.408 2.409 14.512 2.409 13.341 3.58L9.192 7.729L10.606 9.143L14.755 4.994C15.146 4.603 15.779 4.603 16.165 4.994C16.556 5.385 16.556 6.018 16.165 6.404L12.016 10.553L13.43 11.967L17.579 7.818C18.75 6.647 18.75 4.751 17.579 3.58ZM8.474 20.446L10.778 18.142L5.464 12.828L3.16 15.132C1.989 16.303 1.989 18.199 3.16 19.37L4.575 20.784C5.746 21.955 7.641 21.955 8.474 20.446ZM10.066 14.33L9.36 15.036L7.946 13.622L8.652 12.916L10.066 14.33Z" fill="currentColor"/></svg>
